<?xml version="1.0" encoding="UTF-8"?>
<!DOCTYPE svg PUBLIC "-//W3C//DTD SVG 1.1//EN" "http://www.w3.org/Graphics/SVG/1.1/DTD/svg11.dtd">
<!-- Creator: CorelDRAW 2019 (64-Bit) -->
<svg xmlns="http://www.w3.org/2000/svg" xml:space="preserve" width="1000px" height="1000px" version="1.1" shape-rendering="geometricPrecision" text-rendering="geometricPrecision" image-rendering="optimizeQuality" fill-rule="evenodd" clip-rule="evenodd"
viewBox="0 0 1000 1000"
 xmlns:xlink="http://www.w3.org/1999/xlink"
 xmlns:xodm="http://www.corel.com/coreldraw/odm/2003">
 <g id="Ebene_x0020_1">
  <metadata id="CorelCorpID_0Corel-Layer"/>
  <rect fill="#66C3D0" stroke="#2B2A29" stroke-width="16" stroke-linecap="round" stroke-linejoin="round" stroke-miterlimit="22.9256" x="20" y="160" width="960" height="820"/>
  <path fill="#2B2A29" stroke="#2B2A29" stroke-width="2" stroke-miterlimit="22.9256" d="M880 20l0 0c22,0 40,22 40,49l0 122c0,27 -18,49 -40,49l0 0c-22,0 -40,-22 -40,-49l0 -122c0,-27 18,-49 40,-49z"/>
  <path fill="#2B2A29" stroke="#2B2A29" stroke-width="2" stroke-miterlimit="22.9256" d="M120 20l0 0c22,0 40,22 40,49l0 122c0,27 -18,49 -40,49l0 0c-22,0 -40,-22 -40,-49l0 -122c0,-27 18,-49 40,-49z"/>
  <path fill="#2B2A29" stroke="#2B2A29" stroke-width="2" stroke-miterlimit="22.9256" d="M500 20l0 0c22,0 40,22 40,49l0 122c0,27 -18,49 -40,49l0 0c-22,0 -40,-22 -40,-49l0 -122c0,-27 18,-49 40,-49z"/>
  <path fill="#2B2A29" fill-rule="nonzero" d="M385 409c6,-12 14,-18 25,-18l22 0c4,0 8,2 11,5 3,3 5,7 5,11l0 368c0,4 -2,8 -5,11 -3,3 -7,5 -11,5l-23 0c-4,0 -8,-2 -11,-5 -3,-3 -5,-7 -5,-11l0 -270 -89 171c-3,6 -6,11 -10,14 -4,3 -8,5 -13,5l-22 0c-5,0 -10,-2 -13,-5 -4,-3 -7,-8 -10,-14l-89 -171 0 270c0,4 -2,8 -5,11 -3,3 -7,5 -11,5l-23 0c-4,0 -8,-2 -11,-5 -3,-3 -5,-7 -5,-11l0 -368c0,-4 2,-8 5,-11 3,-3 7,-5 11,-5l22 0c11,0 19,6 25,18l115 223 115 -223z"/>
  <path id="1" fill="#2B2A29" fill-rule="nonzero" d="M715 602l0 -7c0,-19 -6,-33 -19,-43 -12,-10 -28,-15 -48,-15 -15,0 -27,3 -36,8 -9,5 -17,13 -24,23 -2,3 -5,5 -7,6 -3,1 -6,2 -11,2l-17 0c-4,0 -8,-2 -11,-5 -3,-3 -5,-7 -4,-11 1,-11 7,-23 17,-34 10,-11 23,-20 40,-28 17,-7 35,-11 54,-11 35,0 64,10 86,30 22,20 33,47 33,83l0 174c0,4 -2,8 -5,11 -3,3 -7,5 -11,5l-21 0c-4,0 -8,-2 -11,-5 -3,-3 -5,-7 -5,-11l0 -23c-6,14 -19,25 -39,32 -20,8 -40,12 -59,12 -19,0 -37,-4 -52,-11 -15,-7 -27,-17 -35,-29 -8,-12 -12,-26 -12,-41 0,-28 11,-51 32,-67 21,-16 50,-27 85,-33l80 -13zm0 46l-67 11c-25,4 -44,10 -58,19 -14,9 -21,19 -21,32 0,9 4,18 13,26 9,8 22,11 40,11 27,0 50,-8 67,-23 17,-16 26,-36 26,-61l0 -14z"/>
  <path id="2" fill="#2B2A29" fill-rule="nonzero" d="M907 433c0,4 -2,8 -5,11 -3,3 -7,5 -11,5l-32 0c-4,0 -8,-2 -11,-5 -3,-3 -5,-7 -5,-11l0 -32c0,-4 2,-8 5,-11 3,-3 7,-5 11,-5l32 0c4,0 8,2 11,5 3,3 5,7 5,11l0 32zm-6 341c0,4 -2,8 -5,11 -3,3 -7,5 -11,5l-21 0c-4,0 -8,-2 -11,-5 -3,-3 -5,-7 -5,-11l0 -266c0,-4 2,-8 5,-11 3,-3 7,-5 11,-5l21 0c4,0 8,2 11,5 3,3 5,7 5,11l0 266z"/>
 </g>
</svg>
